<?xml version="1.0" ?><svg height="24px" version="1.1" viewBox="0 0 564 512" width="24px" xmlns="http://www.w3.org/2000/svg" xmlns:sketch="http://www.bohemiancoding.com/sketch/ns" xmlns:xlink="http://www.w3.org/1999/xlink"><title/><desc/><defs/><g fill="none" fill-rule="evenodd" id="Page-1" stroke="none" stroke-width="1"><path d="M19.9430132,207.9916 C7.64737596,187.519209 0.6,163.689848 0.6,138.256934 C0.6,61.9010701 64.1213912,0.00180389396 142.478893,0.00180389396 C163.903035,0.00180389396 184.21809,4.62914204 202.428959,12.9141176 C220.791422,8.44731815 239.964095,6.08103497 259.683859,6.08103497 C394.25309,6.08103497 503.345369,116.274242 503.345369,252.204164 C503.345369,272.081053 501.01266,291.407616 496.608689,309.919774 C506.824605,329.013648 512.6,350.722718 512.6,373.746673 C512.6,450.102538 449.075556,512.001804 370.721107,512.001804 C345.730859,512.001804 322.249842,505.706284 301.857082,494.654065 C288.158434,497.068512 274.066663,498.327294 259.683859,498.327294 C125.114629,498.327294 16.0223489,388.134087 16.0223489,252.204164 C16.0223489,237.110783 17.3673945,222.33472 19.9430132,207.9916 L19.9430132,207.9916 Z M328.069962,327.504586 C328.069962,314.673388 323.239553,304.168885 313.578591,295.990759 C303.917629,287.812633 286.850185,280.48063 262.375748,273.994531 C227.453158,264.970392 200.581774,253.020637 181.760789,238.144909 C162.939803,223.26918 153.529451,203.775923 153.529451,179.664552 C153.529451,154.84817 163.941666,134.403163 184.766406,118.328916 C205.591147,102.254668 232.462531,94.2176654 265.381365,94.2176654 C299.731453,94.2176654 327.318453,103.312169 348.143194,121.501448 C368.967934,139.690728 379.022341,161.545736 378.306714,187.067129 L377.87734,188.336142 L327.855275,188.336142 C327.855275,172.543899 322.416592,159.748144 311.539065,149.948494 C300.661537,140.148843 285.132668,135.249091 264.951991,135.249091 C245.916318,135.249091 231.281969,139.338093 221.048505,147.516218 C210.815041,155.694344 205.698386,166.269348 205.698386,179.241548 C205.698386,190.944727 211.244411,200.673731 222.336627,208.42885 C233.428843,216.18397 251.784395,223.515972 277.403836,230.425079 C311.038297,239.308215 336.585791,251.57522 354.047086,267.22646 C371.50838,282.877701 380.238897,302.829208 380.238897,327.081581 C380.238897,352.743976 369.826682,373.153734 349.001942,388.311467 C328.177201,403.4692 300.804886,411.047952 266.884174,411.047952 C234.251591,411.047952 205.626947,402.552699 181.009384,385.561938 C156.391821,368.571177 144.441033,345.270918 145.156659,315.660463 L145.586033,314.39145 L195.822785,314.39145 C195.822785,333.144738 202.406453,347.138993 215.573987,356.374635 C228.741521,365.610277 245.844745,370.228029 266.884174,370.228029 C286.206098,370.228029 301.234036,366.385778 311.968439,358.701159 C322.702841,351.016541 328.069962,340.617787 328.069962,327.504586 Z" fill="#696969" id="skype"/></g></svg>